#!OML:ASF I:\Actors\actors\Patient Classification 2\Patient 1\Session 1\actor1.ASF
:FULLY-SPECIFIED
:DEGREES
271
root -0.792825 18.6036 4.82674 1.15796 -2.51751 -3.99213
lowerback 19.2564 1.43273 0.438657
upperback 0.0235907 1.98998 -0.00590664
thorax -10.7951 0.911702 -0.81558
lowerneck -5.46682 -3.19615 2.09138
upperneck -8.54684 -4.25952 1.70368
head -1.74942 -2.21629 0.180963
rclavicle -2.31584e-014 2.38542e-015
rhumerus 21.4566 -0.070697 -31.703
rradius 135.321
rwrist -27.304
rhand -12.1681 -39.6393
rfingers 7.12502
rthumb 13.895 -69.1551
lclavicle -2.31584e-014 2.38542e-015
lhumerus -47.2952 -5.4284 83.361
lradius 58.4972
lwrist 5.3415
lhand -12.0438 -27.6736
lfingers 7.12502
lthumb 14.0148 1.83398
rfemur 0 0 0
rtibia 0
rfoot 0 0
rtoes 0
lfemur -11.8439 -0.408141 -9.25232
ltibia 29.1604
lfoot -20.4569 9.35062
ltoes -56.8521
272
root -0.792734 18.6018 4.84314 1.26106 -2.43744 -4.00003
lowerback 19.1678 1.42711 0.424318
upperback -0.100076 1.97939 -0.0142816
thorax -10.8841 0.906405 -0.813493
lowerneck -5.49389 -3.21369 2.00068
upperneck -8.74186 -4.2702 1.81531
head -1.80309 -2.22269 0.232463
rclavicle -1.80894e-014 1.23246e-014
rhumerus 21.47 -0.3987 -31.5933
rradius 135.405
rwrist -27.2788
rhand -12.291 -39.6356
rfingers 7.12502
rthumb 13.7766 -69.1594
lclavicle -1.80894e-014 1.23246e-014
lhumerus -47.4084 -5.39478 83.3362
lradius 58.2093
lwrist 5.65789
lhand -12.1814 -28.5936
lfingers 7.12502
lthumb 13.8822 0.923072
rfemur 0 0 0
rtibia 0
rfoot 0 0
rtoes 0
lfemur -12.0257 -0.379542 -9.2459
ltibia 29.3178
lfoot -20.4803 9.30436
ltoes -56.9073
273
root -0.792178 18.6005 4.86125 1.3544 -2.36669 -4.01376
lowerback 19.0546 1.39342 0.382192
upperback -0.13617 1.92824 0.010638
thorax -10.8635 0.885851 -0.745309
lowerneck -5.89163 -3.19471 1.84293
upperneck -8.82182 -4.24245 1.8939
head -1.75613 -2.20439 0.276135
rclavicle -6.80837e-014 2.18663e-014
rhumerus 21.6751 -0.782288 -31.5089
rradius 135.503
rwrist -27.2673
rhand -12.2696 -39.4501
rfingers 7.12502
rthumb 13.7972 -68.9726
lclavicle -6.80837e-014 2.18663e-014
lhumerus -47.4048 -5.19561 83.2888
lradius 58.1799
lwrist 5.59484
lhand -12.2078 -28.7069
lfingers 7.12502
lthumb 13.8568 0.811544
rfemur 0 0 0
rtibia 0
rfoot 0 0
rtoes 0
lfemur -12.1622 -0.354253 -9.23157
ltibia 29.4465
lfoot -20.5212 9.2185
ltoes -56.8943
274
root -0.792353 18.5993 4.87822 1.42253 -2.31776 -4.00027
lowerback 18.997 1.38902 0.339112
upperback -0.210489 1.91151 -0.00611151
thorax -10.9153 0.879379 -0.734315
lowerneck -6.0842 -3.20907 1.8221
upperneck -8.9764 -4.26446 1.85957
head -1.77394 -2.215 0.267434
rclavicle 1.02374e-014 -3.97569e-015
rhumerus 21.8635 -1.17236 -31.4449
rradius 135.482
rwrist -27.2879
rhand -12.393 -39.315
rfingers 7.12502
rthumb 13.6783 -68.8455
lclavicle 1.02374e-014 -3.97569e-015
lhumerus -47.5388 -5.12402 83.2877
lradius 58.6245
lwrist 5.20139
lhand -12.097 -27.0827
lfingers 7.12502
lthumb 13.9635 2.42841
rfemur 0 0 0
rtibia 0
rfoot 0 0
rtoes 0
lfemur -12.2347 -0.312739 -9.23942
ltibia 29.5207
lfoot -20.5434 9.09308
ltoes -56.8384
275
root -0.79304 18.5977 4.89154 1.50375 -2.295 -3.99164
lowerback 18.9993 1.42525 0.32877
upperback -0.383524 1.95249 -0.0615165
thorax -11.109 0.895415 -0.804209
lowerneck -5.80349 -3.28792 1.9039
upperneck -9.32831 -4.36241 1.82352
head -1.93857 -2.2709 0.253307
rclavicle 1.86858e-014 4.37326e-015
rhumerus 21.9472 -1.50122 -31.3799
rradius 135.349
rwrist -27.1774
rhand -12.6039 -39.3345
rfingers 7.12502
rthumb 13.475 -68.8786
lclavicle 1.86858e-014 4.37326e-015
lhumerus -47.7924 -5.18826 83.2438
lradius 58.7754
lwrist 5.0403
lhand -12.0013 -26.5606
lfingers 7.12502
lthumb 14.0557 2.94412
rfemur 0 0 0
rtibia 0
rfoot 0 0
rtoes 0
lfemur -12.3338 -0.238175 -9.23701
ltibia 29.5975
lfoot -20.556 8.97965
ltoes -56.8107
276
root -0.794175 18.596 4.90364 1.60508 -2.27631 -4.01927
lowerback 18.9835 1.44546 0.346393
upperback -0.524507 1.97993 -0.100775
thorax -11.2564 0.90438 -0.867516
lowerneck -5.68647 -3.33301 1.90494
upperneck -9.63474 -4.40894 1.90814
head -2.05675 -2.29945 0.286365
rclavicle -1.39149e-014 7.95139e-015
rhumerus 22.0731 -1.82165 -31.3239
rradius 135.249
rwrist -26.8715
rhand -12.7853 -39.3408
rfingers 7.12502
rthumb 13.3002 -68.8964
lclavicle -1.39149e-014 7.95139e-015
lhumerus -47.9168 -5.23311 83.1803
lradius 58.7697
lwrist 5.02861
lhand -11.9825 -26.514
lfingers 7.12502
lthumb 14.0739 2.98942
rfemur 0 0 0
rtibia 0
rfoot 0 0
rtoes 0
lfemur -12.4563 -0.226702 -9.19845
ltibia 29.6844
lfoot -20.6055 8.9464
ltoes -56.7985
